<?xml version="1.0" encoding="UTF-8"?>
<svg width="18px" height="9px" viewBox="0 0 18 9" version="1.1" xmlns="http://www.w3.org/2000/svg" xmlns:xlink="http://www.w3.org/1999/xlink">
    <title>增长</title>
    <g id="首页" stroke="none" stroke-width="1" fill="none" fill-rule="evenodd">
        <g transform="translate(-370.000000, -276.000000)" fill="#FFFFFF" fill-rule="nonzero" id="黄">
            <g transform="translate(260.000000, 203.000000)">
                <g id="增长" transform="translate(110.000000, 73.000000)">
                    <path d="M0.796098042,9 C0.952497159,9 1.10889625,9 1.26529537,8.87999999 L7.36486061,5.4 L11.7440357,5.4 C11.9004348,5.4 12.213233,5.27999999 12.3696321,5.27999999 L16.4360089,2.03999999 L16.4360089,4.19999999 C16.4360089,4.55999999 16.7488071,4.79999999 17.2180045,4.79999999 C17.6872018,4.79999999 18,4.55999999 18,4.19999999 L18,0.599999994 C18,0.239999994 17.6872018,0 17.2180045,0 L12.5260312,0 C12.0568339,0 11.7440357,0.239999994 11.7440357,0.599999994 C11.7440357,0.959999994 12.0568339,1.19999999 12.5260312,1.19999999 L15.3412152,1.19999999 L11.4312374,4.19999999 L7.0520624,4.19999999 C6.89566328,4.19999999 6.73926419,4.19999999 6.58286507,4.32 L0.326900716,7.92 C0.0141025062,8.15999999 -0.14229661,8.51999999 0.1705016,8.75999999 C0.326900716,8.87999999 0.48329981,9 0.796098042,9 Z" id="路径"></path>
                </g>
            </g>
        </g>
    </g>
</svg>